<?xml version="1.0" standalone="no"?>
<!DOCTYPE svg PUBLIC "-//W3C//DTD SVG 20010904//EN"
 "http://www.w3.org/TR/2001/REC-SVG-20010904/DTD/svg10.dtd">
<svg version="1.0" xmlns="http://www.w3.org/2000/svg"
 width="321.000000pt" height="521.000000pt" viewBox="0 0 321.000000 521.000000"
 preserveAspectRatio="xMidYMid meet">
<metadata>
Created by potrace 1.16, written by Peter Selinger 2001-2019
</metadata>
<g transform="translate(0.000000,521.000000) scale(0.100000,-0.100000)"
fill="#000000" stroke="none">
<path d="M933 4858 c7 -5 -4 -8 -28 -7 -22 1 -47 -1 -55 -3 -8 -3 -28 -8 -45
-12 -72 -18 -124 -42 -185 -85 -36 -25 -68 -45 -72 -43 -5 1 -7 -4 -5 -11 1
-6 -4 -11 -11 -9 -8 1 -11 -1 -8 -6 3 -4 -8 -21 -25 -36 -16 -15 -29 -32 -29
-37 0 -6 -6 -7 -12 -3 -7 4 -10 4 -6 -1 10 -10 -32 -86 -43 -79 -5 3 -6 -1 -3
-9 3 -8 -2 -22 -11 -30 -8 -9 -15 -20 -14 -24 4 -18 -14 -73 -23 -73 -6 0 -7
-7 -4 -16 3 -8 2 -13 -2 -10 -4 2 -8 -12 -9 -32 0 -20 -4 -64 -8 -97 -11 -86
-6 -255 7 -255 5 0 5 -12 2 -26 -5 -19 -4 -25 5 -20 11 7 16 -17 12 -58 -1
-11 2 -17 5 -13 8 7 46 -86 47 -115 1 -10 5 -18 9 -18 10 0 41 -60 31 -60 -5
0 -3 -4 2 -8 6 -4 17 -16 25 -26 13 -18 13 -19 0 -12 -8 4 -4 -2 10 -13 14
-11 22 -21 17 -21 -4 0 13 -26 37 -57 25 -31 42 -61 39 -66 -3 -6 -2 -8 3 -5
5 3 18 -6 28 -20 11 -14 14 -22 8 -18 -7 4 10 -16 38 -45 27 -28 47 -56 43
-62 -3 -5 -1 -7 4 -4 6 4 23 -11 38 -33 15 -22 31 -40 36 -40 4 0 10 -8 13
-17 3 -10 25 -38 49 -63 23 -25 84 -92 134 -150 114 -132 209 -231 216 -224 3
3 10 -4 17 -15 6 -12 16 -21 23 -21 7 0 27 -13 46 -29 19 -17 37 -29 40 -28
17 4 50 -16 45 -26 -4 -7 -4 -9 1 -5 4 4 25 -2 47 -13 22 -11 46 -18 54 -15 8
3 14 1 14 -3 0 -5 9 -7 20 -4 11 3 20 0 20 -6 0 -6 -7 -11 -15 -11 -35 0 -142
-53 -167 -83 -57 -64 -25 -177 49 -177 36 0 55 19 84 85 12 28 29 60 37 73 14
21 16 21 32 7 17 -16 17 -20 -11 -102 -46 -136 -59 -227 -59 -405 0 -244 32
-374 165 -668 71 -156 126 -314 156 -450 18 -82 23 -135 23 -240 0 -120 -4
-148 -32 -253 -31 -115 -42 -217 -23 -217 5 0 12 26 15 57 4 32 19 101 33 153
22 76 28 122 31 231 7 236 -42 424 -199 775 -118 263 -154 423 -146 654 5 149
18 224 63 362 19 57 29 75 40 71 19 -7 19 -3 -21 -136 -42 -140 -45 -188 -10
-222 16 -17 35 -25 60 -25 19 0 35 4 35 9 0 15 -27 32 -56 35 -39 4 -48 36
-29 105 47 173 72 246 85 246 22 0 23 29 4 67 -14 27 -14 31 -2 20 9 -7 26
-36 38 -64 20 -46 21 -63 17 -147 -4 -53 -9 -121 -12 -151 -4 -32 -2 -67 4
-82 9 -25 16 -28 54 -28 70 0 100 50 98 160 -2 54 -8 76 -37 130 -20 36 -52
85 -73 110 -49 59 -84 110 -79 115 2 2 21 5 43 8 22 2 53 9 68 16 16 6 33 8
39 5 7 -5 8 -2 3 6 -6 10 -4 12 8 7 9 -3 23 0 31 8 8 8 17 15 21 15 3 0 15 9
27 20 12 11 30 20 39 20 10 0 21 5 25 12 5 7 2 9 -7 4 -8 -4 -3 1 11 12 13 11
27 20 30 20 14 -3 248 245 258 273 2 5 8 7 13 3 5 -3 8 -2 7 3 -5 13 53 83 63
77 5 -3 8 -1 7 5 -3 10 95 130 160 196 17 19 32 38 32 43 0 6 12 20 28 32 15
12 20 19 12 15 -8 -4 -5 2 8 13 12 11 22 25 22 32 0 6 5 8 10 5 6 -3 10 3 10
14 0 11 10 27 22 35 12 9 18 16 13 16 -6 0 -5 4 1 8 6 4 19 22 28 40 9 17 21
32 27 32 6 0 8 4 5 9 -3 5 1 14 9 21 8 7 12 16 9 21 -3 5 -1 9 4 9 5 0 15 18
22 40 7 21 17 37 21 34 5 -3 6 2 3 10 -4 10 -1 16 7 16 7 0 10 3 7 6 -7 7 22
97 34 105 4 3 11 34 14 70 3 35 8 71 12 79 10 25 9 210 -1 210 -5 0 -6 11 -3
24 3 13 -1 40 -9 60 -9 20 -13 41 -10 46 4 6 1 10 -4 10 -6 0 -11 9 -11 20 0
12 -7 34 -15 51 -9 16 -14 33 -11 37 2 4 -2 18 -10 32 -7 14 -13 21 -14 16 0
-6 -13 10 -28 35 -37 58 -108 139 -116 132 -3 -3 -8 2 -12 11 -3 9 -12 16 -20
16 -7 0 -19 9 -27 20 -8 11 -17 17 -20 13 -4 -3 -7 -1 -7 5 0 7 -3 11 -7 11
-23 -4 -43 2 -38 11 4 6 -1 7 -11 3 -13 -5 -15 -3 -9 7 5 8 4 11 -3 6 -6 -3
-31 3 -56 15 -25 11 -50 18 -55 15 -6 -4 -37 0 -69 8 -58 16 -202 18 -179 4 7
-4 -4 -7 -23 -6 -19 0 -57 -7 -83 -16 -27 -9 -52 -14 -57 -11 -4 3 -13 -2 -20
-10 -7 -8 -20 -15 -30 -15 -9 0 -20 -3 -24 -7 -4 -5 -11 -8 -14 -8 -4 -1 -17
-6 -28 -13 -12 -6 -24 -8 -28 -5 -3 3 -6 2 -6 -4 0 -5 -19 -16 -42 -23 -24 -8
-48 -17 -53 -21 -15 -11 -177 -21 -171 -10 3 4 -5 6 -18 4 -13 -3 -34 2 -47
10 -13 8 -41 18 -61 21 -20 4 -38 11 -40 17 -2 5 -10 11 -18 12 -8 2 -21 6
-28 10 -7 5 -24 11 -39 13 -15 3 -33 10 -40 15 -6 6 -22 12 -35 13 -13 2 -50
11 -83 21 -59 18 -236 28 -212 13z m1810 -686 c58 -100 -19 -353 -124 -407
-30 -16 -30 -16 -45 20 -8 20 -12 39 -10 44 3 4 8 63 11 131 6 122 6 123 47
187 37 58 43 64 71 61 23 -2 36 -12 50 -36z m-1231 -1620 c-17 -21 -43 -64
-59 -96 -34 -71 -51 -85 -87 -68 -23 10 -26 18 -26 60 0 62 24 86 117 117 90
31 89 31 55 -13z m279 -144 c30 -47 34 -62 37 -133 3 -70 1 -83 -18 -107 -27
-35 -67 -38 -75 -5 -3 12 -1 63 4 112 6 50 11 111 11 138 0 26 1 47 3 47 2 0
19 -24 38 -52z"/>
</g>
</svg>
